<svg width="36" height="36" viewBox="0 0 36 36" fill="none" xmlns="http://www.w3.org/2000/svg">
<g clip-path="url(#clip0)">
<path d="M0.723204 20.8773C0.429017 20.9338 0.429017 21.3549 0.723204 21.4113L5.05305 22.77V19.5179L0.723204 20.8773Z" fill="#333E40"/>
<path d="M14.5259 6.3356C13.815 8.67731 14.9958 11.1091 17.1634 11.7671C19.331 12.4252 21.6645 11.0603 22.3754 8.71859C23.0863 6.37688 21.9054 3.9451 19.7378 3.28705C17.5703 2.629 15.2368 3.99389 14.5259 6.3356Z" fill="#D9D9D9"/>
<path d="M15.047 7.37481C14.2348 4.69944 11.5688 3.1401 9.09234 3.89191C6.61589 4.64372 5.26675 7.422 6.07895 10.0974C6.89114 12.7727 9.55712 14.3321 12.0336 13.5803C14.51 12.8284 15.8592 10.0502 15.047 7.37481Z" fill="#F0F0F0"/>
<path d="M14.1015 23.7803V17.43L16.8875 11.981L16.2836 9.78075C14.2563 10.1601 12.3838 10.8254 10.7506 11.7134L7.8733 13.7282L6.23523 18.8639V23.7394L8.24272 28.3691L10.7505 30.5755C12.3836 31.4634 14.2561 32.1287 16.2834 32.5081L17.2971 30.0898L14.1015 23.7803Z" fill="#FFCE1C"/>
<path d="M17.1117 30.5325C16.8331 30.4918 16.5567 30.4469 16.2836 30.3956C14.2563 30.0163 12.3838 29.3509 10.7506 28.463C9.32047 27.685 8.07411 26.7354 7.06653 25.6562L8.24286 28.3689L10.7506 30.5753C10.8527 30.6308 10.9557 30.6854 11.0596 30.7391C11.3713 30.9004 11.6913 31.0536 12.019 31.1985C12.9013 31.5886 13.8479 31.9186 14.7934 32.1707C15.2795 32.3004 15.7767 32.413 16.2835 32.5079L17.1117 30.5325Z" fill="#FAA330"/>
<path d="M7.80798 21.144C7.80798 24.6589 8.89789 27.9138 10.7507 30.5754C6.82261 28.4387 4.27625 25.01 4.27625 21.144C4.27625 17.2788 6.82269 13.8495 10.7507 11.7134C8.89789 14.375 7.80798 17.6299 7.80798 21.144Z" fill="#3B484A"/>
<path d="M33.8417 26.5731C32.1379 29.1676 29.2171 31.1906 25.5377 32.188C23.9073 32.6302 22.1281 32.8711 20.24 32.8711C18.8746 32.8711 17.5488 32.7453 16.2836 32.5081C13.4872 29.5724 11.7637 25.5638 11.7637 21.1442C11.7637 16.7252 13.4872 12.7165 16.2836 9.78096C17.5487 9.54359 18.8746 9.41794 20.24 9.41794C24.5431 9.41794 28.2798 10.6682 30.9781 12.7018C31.7735 13.3015 32.4791 13.9683 33.0816 14.6917L33.8417 26.5731Z" fill="#3B484A"/>
<path d="M25.5376 30.0756C23.9072 30.5178 22.128 30.7587 20.2399 30.7587C18.8745 30.7587 17.5487 30.6329 16.2835 30.3957C15.5924 30.2663 14.9197 30.103 14.2678 29.9097C14.8534 30.845 15.5289 31.7159 16.2835 32.508C16.4417 32.5377 16.6007 32.5656 16.7608 32.5917C19.6668 33.0667 22.6913 32.96 25.5377 32.188C28.5316 31.376 31.4069 29.7654 33.3307 27.2874C33.5115 27.0545 33.6819 26.8163 33.8416 26.5731L33.7182 24.6434C31.9987 27.15 29.1301 29.1018 25.5376 30.0756Z" fill="#333E40"/>
<path d="M35.497 21.1441C35.512 23.069 34.899 24.9719 33.8417 26.5732C29.7278 32.8033 20.0033 32.4205 16.5782 25.4261C15.9284 24.0995 15.578 22.655 15.578 21.1441C15.578 19.0483 16.2525 17.0805 17.4647 15.3774C19.8232 12.0625 24.6025 11.5736 27.5127 14.4161C27.5586 14.4613 27.6045 14.5065 27.6497 14.5531C27.6957 14.5065 27.7416 14.4613 27.7868 14.4161C27.7959 14.407 27.8051 14.3985 27.8143 14.3892C29.3182 12.9384 31.7438 13.0867 33.0817 14.6916C34.5917 16.5028 35.4785 18.7666 35.497 21.1441Z" fill="#FFCE1C"/>
<path d="M35.4916 20.9009C35.4833 20.6463 35.4647 20.392 35.4366 20.1389C35.2589 21.678 34.6954 23.1678 33.8415 24.4608C32.1378 27.0553 29.217 29.0783 25.5376 30.0757C24.6663 30.312 23.752 30.4902 22.8016 30.6055C26.772 31.7019 31.3421 30.3582 33.8415 26.5731C34.8026 25.1175 35.3938 23.4108 35.4845 21.6657C35.4976 21.4154 35.4998 21.1581 35.4916 20.9009Z" fill="#FAA330"/>
<path d="M4.34043 20.0879C4.32834 20.1875 4.31821 20.2875 4.30949 20.388C4.30647 20.4228 4.30415 20.4578 4.30155 20.4927C4.22294 21.5416 4.33551 22.5996 4.62956 23.6093C5.21793 25.6294 6.50099 27.3804 8.0819 28.744C8.87306 29.4263 9.7687 30.0412 10.7507 30.5754C10.0597 29.5829 9.475 28.5077 9.01326 27.3674C6.40818 25.4737 4.68538 22.9267 4.34043 20.0879Z" fill="#333E40"/>
<path d="M27.2339 6.78439C27.9207 6.78439 28.4775 6.2276 28.4775 5.54077C28.4775 4.85394 27.9207 4.29715 27.2339 4.29715C26.547 4.29715 25.9902 4.85394 25.9902 5.54077C25.9902 6.2276 26.547 6.78439 27.2339 6.78439Z" fill="#FFCE1C"/>
<path d="M28.4256 5.19026C28.2889 5.64968 27.8921 6.00821 27.386 6.07072C26.7726 6.14644 26.2098 5.76113 26.0417 5.18668C25.9943 5.346 25.9777 5.51729 25.9993 5.69279C26.0835 6.37447 26.7042 6.85885 27.3859 6.77483C28.0676 6.69066 28.5519 6.06994 28.4679 5.38819C28.4595 5.31985 28.4443 5.25418 28.4256 5.19026Z" fill="#FAA330"/>
<path d="M31.5612 7.6701C32.2481 7.6701 32.8049 7.11331 32.8049 6.42648C32.8049 5.73965 32.2481 5.18286 31.5612 5.18286C30.8744 5.18286 30.3176 5.73965 30.3176 6.42648C30.3176 7.11331 30.8744 7.6701 31.5612 7.6701Z" fill="#FFCE1C"/>
<path d="M32.753 6.07648C32.6163 6.5359 32.2195 6.89442 31.7133 6.95693C31.1 7.03266 30.5372 6.64734 30.3691 6.07289C30.3217 6.23222 30.3051 6.4035 30.3267 6.579C30.4109 7.26068 31.0316 7.74506 31.7133 7.66104C32.395 7.57688 32.8793 6.95616 32.7953 6.27441C32.7869 6.20613 32.7717 6.14053 32.753 6.07648Z" fill="#FAA330"/>
<path d="M22.7022 20.4079C22.4105 20.4079 22.1741 20.6443 22.1741 20.936V21.8372C22.1741 22.1289 22.4105 22.3654 22.7022 22.3654C22.9938 22.3654 23.2303 22.1289 23.2303 21.8372V20.936C23.2303 20.6442 22.9938 20.4079 22.7022 20.4079Z" fill="black"/>
<path d="M32.6622 20.4079C32.3705 20.4079 32.134 20.6443 32.134 20.936V21.8372C32.134 22.1289 32.3705 22.3654 32.6622 22.3654C32.9538 22.3654 33.1903 22.1289 33.1903 21.8372V20.936C33.1903 20.6442 32.9538 20.4079 32.6622 20.4079Z" fill="black"/>
<path d="M29.2589 21.3768C29.0393 21.1849 28.7057 21.2073 28.5138 21.4269C28.312 21.6578 28.0089 21.7901 27.6822 21.7901C27.3554 21.7901 27.0524 21.6577 26.8507 21.4269C26.6587 21.2073 26.3251 21.1849 26.1055 21.3768C25.8859 21.5688 25.8635 21.9023 26.0554 22.122C26.4577 22.5823 27.0507 22.8463 27.6822 22.8463C28.3136 22.8463 28.9065 22.5823 29.309 22.122C29.5009 21.9025 29.4785 21.5688 29.2589 21.3768Z" fill="black"/>
<path d="M33.5122 14.3967C32.871 13.6055 32.1314 12.8926 31.3213 12.2818C30.9651 12.0133 30.5931 11.7598 30.2073 11.5214C30.3 10.6772 30.5347 9.37715 31.1292 8.13972C31.2751 8.17874 31.4276 8.20047 31.5847 8.20047C32.6336 8.20047 33.4734 7.25322 33.3447 6.21161C33.2353 5.32518 32.4801 4.65672 31.5879 4.65672C30.5393 4.65672 29.6996 5.60516 29.828 6.64558C29.8714 6.99756 30.0178 7.31404 30.233 7.56906C29.6352 8.77098 29.3502 10.0256 29.2148 10.958C28.2215 10.4405 27.1515 10.0151 26.0236 9.68765C26.1603 8.97735 26.3959 8.10126 26.8023 7.2535C26.948 7.29245 27.1005 7.31418 27.2575 7.31418C27.8008 7.31418 28.3215 7.06056 28.6558 6.63222C28.947 6.25914 29.0753 5.79494 29.0173 5.32532C28.908 4.43889 28.1528 3.77043 27.2606 3.77043C26.2117 3.77043 25.372 4.71761 25.5006 5.75929C25.544 6.11155 25.6907 6.42824 25.9062 6.6834C25.4331 7.63642 25.158 8.62101 24.9995 9.42102C24.3002 9.25923 23.5823 9.13358 22.8495 9.04555C22.8689 8.98874 22.8883 8.93186 22.9056 8.87462C23.2881 7.61448 23.1923 6.28944 22.6359 5.14356C22.0728 3.9839 21.1069 3.14619 19.9163 2.78479C17.7757 2.13503 15.5188 3.25384 14.4729 5.17077C13.452 3.94023 11.9657 3.17797 10.3879 3.17797C9.90598 3.17797 9.42708 3.24913 8.96456 3.38954C6.21373 4.22458 4.70412 7.30356 5.59948 10.2532C5.96876 11.4697 6.69248 12.5044 7.668 13.2327C6.88099 13.9239 6.1953 14.6781 5.63358 15.4789C4.79461 16.6749 4.22859 17.9778 3.95775 19.3183L0.612492 20.3684C0.249961 20.4548 0 20.7695 0 21.1461C0 21.5229 0.250031 21.8375 0.612562 21.9238L3.95761 22.9735C4.22831 24.3141 4.79447 25.6172 5.63344 26.8132C6.79676 28.4716 8.48777 29.9335 10.5238 31.0411C12.2421 31.9754 14.1557 32.644 16.2116 33.0288C17.5278 33.2757 18.8917 33.4009 20.2653 33.4009C22.1562 33.4009 23.9851 33.1648 25.7013 32.6994C29.4445 31.6848 32.499 29.6153 34.3035 26.872C34.3049 26.8699 34.3063 26.8679 34.3085 26.8647C36.8941 22.9477 36.4268 17.9927 33.5122 14.3967ZM31.0222 5.98836C31.1397 5.83769 31.309 5.74178 31.4987 5.71844C31.5284 5.71478 31.5584 5.71295 31.5879 5.71295C31.9477 5.71295 32.2523 5.98295 32.2965 6.34105C32.3448 6.73269 32.0655 7.09051 31.674 7.13889C31.6443 7.14254 31.6143 7.14437 31.5847 7.14437C31.2249 7.14437 30.9203 6.87444 30.8762 6.51627C30.8528 6.32643 30.9047 6.13904 31.0222 5.98836ZM27.1714 4.83236C27.5581 4.78173 27.9216 5.06924 27.9691 5.45455C28.0211 5.87586 27.6814 6.25787 27.2574 6.25787C26.8976 6.25787 26.593 5.98787 26.5488 5.62977C26.5008 5.24137 26.793 4.88193 27.1714 4.83236ZM33.4238 26.2823C31.6815 28.8969 28.6976 30.449 25.563 30.449C21.9727 30.449 18.6592 28.4249 17.0777 25.1954C15.5682 22.1126 15.9408 18.4662 17.9203 15.6852C20.0436 12.7019 24.5282 12.1969 27.1677 14.7942C27.317 14.9412 27.4492 15.082 27.675 15.0829C27.9008 15.0837 28.056 14.9159 28.2063 14.771C28.816 14.1827 29.6541 13.8754 30.4995 13.9231C31.3545 13.9714 32.1492 14.3691 32.7014 15.0315C34.1629 16.7848 34.9772 18.9577 34.9943 21.15C35.0084 22.9722 34.4311 24.7709 33.4238 26.2823ZM15.159 6.19916C15.7414 4.68948 17.1486 3.65294 18.6517 3.65294C18.9757 3.65294 19.298 3.70089 19.6094 3.79539C20.5152 4.07031 21.2526 4.71297 21.6858 5.60488C22.1257 6.51065 22.1999 7.56287 21.8949 8.56778C21.8566 8.69378 21.8121 8.81886 21.7614 8.94219C21.7004 8.93804 21.1331 8.90886 20.9103 8.90155C20.176 8.88004 19.4413 8.8948 18.7084 8.94543C18.3639 8.96933 17.66 9.04337 17.6515 9.04443C17.9632 8.11349 18.5336 6.79464 19.4633 5.88536C19.6718 5.68145 19.6755 5.34704 19.4716 5.13857C19.2677 4.93009 18.9333 4.92644 18.7249 5.13027C18.1607 5.68208 17.1445 6.93076 16.4922 9.21325C16.2682 9.2522 16.0447 9.29432 15.822 9.3403C15.8524 8.88897 15.828 8.43229 15.7544 7.98622C15.6516 7.3641 15.4499 6.75843 15.159 6.19916ZM8.51667 12.5402C7.61119 11.9433 6.94005 11.034 6.60994 9.9464C5.88375 7.55401 7.07759 5.06594 9.27112 4.40015C11.2023 3.81395 13.2145 4.8699 14.1625 6.57906C14.6637 7.48272 14.8727 8.55126 14.7375 9.57669C14.7367 9.58295 14.736 9.58914 14.7352 9.5954C14.0302 9.78095 13.335 10.0049 12.655 10.2679C12.2653 9.05722 11.5239 7.29597 10.2511 6.05101C10.0426 5.84711 9.70826 5.85083 9.50428 6.05931C9.30037 6.26779 9.30403 6.60219 9.51258 6.8061C10.6608 7.92906 11.3311 9.57494 11.6775 10.6781C11.0429 10.9661 10.4253 11.2892 9.82976 11.6512C9.56897 11.8097 8.53875 12.5547 8.51667 12.5402ZM3.79786 21.8165L1.66155 21.1461L3.79786 20.4755C3.79238 20.5509 3.78914 20.6262 3.78555 20.7017C3.76755 21.0726 3.77086 21.4459 3.79786 21.8165ZM6.50166 26.2041C5.72421 25.0985 5.16333 23.8513 4.94009 22.4955C4.93938 22.4899 4.93938 22.4844 4.93847 22.4788C4.79384 21.5977 4.79384 20.694 4.93847 19.8129C4.93938 19.8072 4.93938 19.8016 4.94016 19.796C5.27393 17.2919 6.98245 15.09 8.91626 13.5662C8.97504 13.5198 9.15722 13.3805 9.16488 13.3748C9.1608 13.3828 9.02876 13.647 8.96892 13.772C7.87549 16.0536 7.3054 18.6029 7.3054 21.1458C7.3054 23.8286 7.93266 26.5034 9.15328 28.8939C9.15743 28.9019 9.16116 28.9102 9.1653 28.9182C8.15316 28.1565 7.23192 27.2428 6.50166 26.2041ZM11.1395 30.1731C11.0911 30.1024 11.0431 30.0314 10.9958 29.96C10.554 29.2918 10.1623 28.5901 9.82631 27.8629C8.85593 25.7626 8.36149 23.4584 8.36149 21.1458C8.36149 18.2046 9.17754 15.2752 10.7182 12.768C10.8112 12.6168 11.1219 12.1452 11.139 12.1201C11.1512 12.1136 11.1634 12.1071 11.1757 12.1006C12.318 11.494 13.5316 11.0227 14.7778 10.6784C14.8036 10.6713 14.8295 10.6645 14.8553 10.6575C14.59 10.9962 14.3383 11.3454 14.0996 11.7034C12.2497 14.4778 11.2609 17.8136 11.2609 21.146C11.2609 24.667 12.3577 28.1624 14.4038 31.0308C14.4546 31.1019 14.7793 31.538 14.8565 31.6367C13.536 31.2777 12.2912 30.7879 11.1395 30.1731ZM25.4247 31.6801C23.7987 32.1211 22.0628 32.3447 20.2653 32.3447C19.0159 32.3447 17.7758 32.2361 16.5762 32.0218C15.3991 30.7599 14.429 29.305 13.7208 27.7311C12.7389 25.5494 12.2659 23.1526 12.3215 20.7618C12.3853 18.0181 13.1664 15.2821 14.5756 12.9259C15.1449 11.9739 15.8184 11.0832 16.5747 10.272C16.6287 10.2624 16.6827 10.2528 16.7368 10.2435C18.4756 9.94731 20.2552 9.87201 22.0128 10.0206C25.1654 10.2861 28.056 11.2697 30.3228 12.8617C29.3456 12.8617 28.4166 13.2021 27.6778 13.8256C26.3806 12.6649 24.7176 12.0292 22.9606 12.0292C20.6215 12.0292 18.4155 13.167 17.0596 15.0727C15.7613 16.8967 15.0751 18.9967 15.0751 21.1456C15.0751 22.7084 15.442 24.2573 16.1291 25.6598C17.8867 29.2479 21.5735 31.5051 25.5628 31.5051C25.6636 31.5051 26.0258 31.4953 26.0642 31.4935C25.8537 31.5595 25.6406 31.6216 25.4247 31.6801Z" fill="black"/>
</g>
<defs>
<clipPath id="clip0">
<rect width="36" height="36" fill="white"/>
</clipPath>
</defs>
</svg>
