<svg width="36" height="36" viewBox="0 0 36 36" fill="none" xmlns="http://www.w3.org/2000/svg">
<g clip-path="url(#clip0)">
<path d="M26.8863 30.5806V29.4554H28.0115C29.6039 29.4554 30.8948 30.7463 30.8948 32.3388V33.464H29.7696C28.1772 33.464 26.8863 32.1731 26.8863 30.5806Z" fill="#89DF8F"/>
<path d="M24.0746 4.04086L3.30589 24.8104C2.69006 25.4262 3.12621 26.4792 3.99712 26.4792L19.6491 26.4794C27.0004 26.4795 32.9598 20.5202 32.9598 13.169V7.72111C32.9598 4.84658 30.6295 2.51636 27.755 2.51636C26.3746 2.51636 25.0507 3.06475 24.0746 4.04086V4.04086Z" fill="#FFCD69"/>
<path d="M0.703247 32.2051C2.44323 33.9238 5.24442 33.9152 6.97378 32.1858L21.092 18.0676L17.9663 14.942L0.703247 32.2051Z" fill="#FF7D97"/>
<path d="M1.64139 26.4744C7.25079 29.6739 14.3227 28.7106 18.8889 24.1443C23.0083 20.025 23.0238 13.3307 18.9045 9.21136L1.64139 26.4744Z" fill="#80B6FF"/>
<path d="M3.62576 24.467C7.61516 24.7003 11.6332 23.261 14.6001 20.2941L14.6311 20.2631C17.249 17.6453 18.2032 13.9938 17.4937 10.6225L3.62576 24.467Z" fill="#A0C8FF"/>
<path d="M28.1943 7.8053C28.0628 7.93604 27.9883 8.11747 27.9883 8.30243C27.9883 8.48745 28.0628 8.66882 28.1943 8.79962C28.3251 8.93043 28.5065 9.00568 28.6915 9.00568C28.8765 9.00568 29.0571 8.9305 29.1886 8.79962C29.3195 8.66882 29.3948 8.48745 29.3948 8.30243C29.3948 8.11747 29.3195 7.93604 29.1886 7.8053C29.0579 7.6745 28.8765 7.59918 28.6915 7.59918C28.5065 7.59918 28.3251 7.6745 28.1943 7.8053Z" fill="black"/>
<path d="M35.2967 25.7762H25.7732C26.9953 25.1819 28.1351 24.4078 29.154 23.4669C29.4394 23.2034 29.4571 22.7585 29.1936 22.4731C28.9301 22.1878 28.4851 22.17 28.1998 22.4336C25.8655 24.5891 22.8288 25.7762 19.6491 25.7762H18.1132C18.5546 25.425 18.9802 25.0475 19.386 24.6416C21.5119 22.5158 22.685 19.6879 22.6893 16.6788C22.6933 13.9033 21.7013 11.284 19.8832 9.22735L24.5719 4.53808C25.4221 3.68778 26.5526 3.21956 27.755 3.21956C30.2372 3.21956 32.2566 5.23894 32.2566 7.72106V13.1689C32.2566 14.6504 32.0022 16.1007 31.5006 17.4795C31.3678 17.8445 31.556 18.248 31.921 18.3808C32.0004 18.4096 32.0815 18.4233 32.1613 18.4233C32.4486 18.4233 32.7184 18.246 32.8223 17.9603C33.3801 16.4269 33.663 14.8149 33.663 13.1689V10.1918H35.2966C35.581 10.1918 35.8374 10.0204 35.9463 9.75767C36.0551 9.49487 35.9949 9.1924 35.7938 8.99127L33.5881 6.78553C33.1383 3.97091 30.6941 1.81299 27.7548 1.81299C26.1767 1.81299 24.6931 2.42756 23.5772 3.54348L1.14399 25.9772C0.988924 26.1322 0.915083 26.3507 0.944268 26.568C0.973452 26.7854 1.10236 26.9767 1.29287 27.0853C2.07713 27.5326 2.88995 27.9003 3.72028 28.1935L0.205925 31.7078C0.073503 31.8402 -0.000689944 32.02 -5.70186e-05 32.2072C0.000505582 32.3945 0.0757534 32.5738 0.209019 32.7054C1.20911 33.6934 2.51899 34.1868 3.82865 34.1868C5.14893 34.1868 6.469 33.6852 7.47099 32.6831L11.333 28.8212C12.9561 28.5367 14.5352 27.9873 15.9998 27.1827H23.6189L26.1829 29.7467V30.5806C26.1829 32.5582 27.7919 34.1671 29.7695 34.1671H30.8947C31.283 34.1671 31.598 33.8522 31.598 33.4639V32.3387C31.598 30.3611 29.989 28.7521 28.0114 28.7521H27.1775L25.6081 27.1827H35.2967C35.685 27.1827 36 26.8678 36 26.4794C36 26.0911 35.685 25.7762 35.2967 25.7762ZM14.1182 19.7814C11.7605 22.1392 8.63522 23.5417 5.35238 23.7578L16.993 12.1173C17.1916 14.9463 16.1642 17.7354 14.1182 19.7814V19.7814ZM3.92612 25.1841C4.10397 25.1904 4.28161 25.1947 4.45904 25.1947C8.43578 25.1947 12.2778 23.6109 15.1127 20.776C17.7301 18.1586 18.8892 14.4756 18.2544 10.8559L18.8869 10.2234C20.4404 12.0122 21.2863 14.278 21.2829 16.6768C21.279 19.311 20.2523 21.7863 18.3916 23.6471C14.274 27.7646 7.98943 28.7952 2.81351 26.2967L3.92612 25.1841ZM6.47646 31.6885C5.19654 32.9686 3.2029 33.1252 1.7485 32.1543L5.25737 28.6454C6.39734 28.9148 7.55848 29.0494 8.71687 29.0494C8.85183 29.0494 8.98664 29.0472 9.12145 29.0436L6.47646 31.6885ZM30.1915 32.3387V32.7607H29.7696C28.5674 32.7607 27.5895 31.7828 27.5895 30.5806V30.1587H28.0115C29.2136 30.1587 30.1915 31.1366 30.1915 32.3387Z" fill="black"/>
<path d="M30.2344 20.0461C30.1036 20.1769 30.0284 20.3583 30.0284 20.5433C30.0284 20.7282 30.1035 20.9097 30.2344 21.0405C30.3652 21.1712 30.5466 21.2465 30.7316 21.2465C30.9165 21.2465 31.098 21.1713 31.2287 21.0405C31.3595 20.9097 31.4348 20.7282 31.4348 20.5433C31.4348 20.3583 31.3596 20.1769 31.2287 20.0461C31.098 19.9153 30.9172 19.84 30.7316 19.84C30.5467 19.84 30.3653 19.9153 30.2344 20.0461Z" fill="black"/>
</g>
<defs>
<clipPath id="clip0">
<rect width="36" height="36" fill="white"/>
</clipPath>
</defs>
</svg>
