<svg width="36" height="36" viewBox="0 0 36 36" fill="none" xmlns="http://www.w3.org/2000/svg">
<g clip-path="url(#clip0)">
<path d="M22.2645 25.0957H22.9565C24.179 25.0957 25.1701 24.1046 25.1701 22.8821C25.1701 21.6596 24.179 20.6684 22.9565 20.6684H17.9999L11.0792 18.1248C8.79116 19.8716 7.31494 22.6276 7.31494 25.7284C7.31494 31.0084 11.5952 35.2887 16.8752 35.2887H23.4463C23.4463 35.2401 23.4451 35.1918 23.4426 35.1438C23.3879 33.9579 22.6654 32.9467 21.6426 32.4768H22.2645V25.0957Z" fill="#A7BDCD"/>
<path d="M27.9349 11.5724C28.2689 11.6359 28.6136 11.6692 28.966 11.6692C31.9942 11.6692 34.4491 9.21428 34.4491 6.18606C34.4491 3.15784 31.9942 0.702957 28.966 0.702957C26.5784 0.702957 24.5472 2.22902 23.7947 4.35899L27.9349 11.5724Z" fill="#A7BDCD"/>
<path d="M28.9662 8.71673C30.3639 8.71673 31.4969 7.58372 31.4969 6.18607C31.4969 4.78843 30.3639 3.65541 28.9662 3.65541C27.5686 3.65541 26.4355 4.78843 26.4355 6.18607C26.4355 7.58372 27.5686 8.71673 28.9662 8.71673Z" fill="white"/>
<path d="M8.06486 11.5724C7.73089 11.6359 7.38622 11.6692 7.03376 11.6692C4.00554 11.6692 1.55066 9.21428 1.55066 6.18606C1.55066 3.15784 4.00554 0.702957 7.03376 0.702957C9.42137 0.702957 11.4526 2.22902 12.2051 4.35899L8.06486 11.5724Z" fill="#A7BDCD"/>
<path d="M7.03371 8.71673C8.43136 8.71673 9.56438 7.58372 9.56438 6.18607C9.56438 4.78843 8.43136 3.65541 7.03371 3.65541C5.63607 3.65541 4.50305 4.78843 4.50305 6.18607C4.50305 7.58372 5.63607 8.71673 7.03371 8.71673Z" fill="white"/>
<path d="M17.9999 20.6684C23.4869 20.6684 27.935 16.6393 27.935 11.6692C27.935 6.69902 23.4869 2.66992 17.9999 2.66992C12.5128 2.66992 8.0647 6.69902 8.0647 11.6692C8.0647 16.6393 12.5128 20.6684 17.9999 20.6684Z" fill="#A7BDCD"/>
<path d="M17.9998 15.7464C17.0082 15.7464 16.2045 14.9425 16.2045 13.951V12.8085C16.2045 11.8169 17.0083 11.0131 17.9998 11.0131C18.9914 11.0131 19.7952 11.8169 19.7952 12.8085V13.951C19.7952 14.9426 18.9914 15.7464 17.9998 15.7464Z" fill="#6D92AC"/>
<path d="M30.3896 9.65729L28.3054 9.07404C27.7176 8.90955 27.1079 9.25266 26.9434 9.84041L23.8593 20.8611C24.6316 21.2067 25.17 21.9813 25.17 22.8821C25.17 24.1047 24.1789 25.0957 22.9564 25.0957H22.6742L20.6086 32.4768H21.6425C22.6653 32.9467 23.3878 33.9579 23.4425 35.1438C23.445 35.1918 23.4461 35.2401 23.4461 35.2887C23.4461 35.2887 23.4303 35.2887 23.4008 35.2887C23.9301 35.3486 24.4398 35.019 24.5879 34.4895L31.156 11.0193C31.3204 10.4316 30.9773 9.82178 30.3896 9.65729Z" fill="#89DF8F"/>
<path d="M28.2957 21.872C28.2957 21.872 27.3852 23.7647 25.3255 24.3619C24.1116 24.7139 23.3606 25.9614 23.6506 27.1916C24.0809 29.0163 26.3123 28.6444 26.3123 28.6444C26.3123 28.6444 31.0871 27.9183 28.2957 21.872Z" fill="#A7BDCD"/>
<path d="M13.5362 9.56021C13.3513 9.56021 13.17 9.63543 13.0392 9.76625C12.9085 9.89693 12.8333 10.0783 12.8333 10.2632C12.8333 10.4481 12.9085 10.6294 13.0392 10.7602C13.17 10.8909 13.3513 10.9661 13.5362 10.9661C13.7211 10.9661 13.9025 10.891 14.0332 10.7602C14.164 10.6294 14.2392 10.4481 14.2392 10.2632C14.2392 10.0783 14.164 9.89693 14.0332 9.76625C13.9025 9.63543 13.721 9.56021 13.5362 9.56021Z" fill="black"/>
<path d="M22.4637 9.56021C22.2788 9.56021 22.0975 9.63543 21.9667 9.76625C21.836 9.89693 21.7607 10.0783 21.7607 10.2632C21.7607 10.4481 21.836 10.6294 21.9667 10.7602C22.0975 10.8909 22.2788 10.9661 22.4637 10.9661C22.6486 10.9661 22.8299 10.891 22.9607 10.7602C23.0914 10.6294 23.1667 10.4481 23.1667 10.2632C23.1667 10.0783 23.0914 9.89693 22.9607 9.76625C22.8299 9.63543 22.6485 9.56021 22.4637 9.56021Z" fill="black"/>
<path d="M17.9999 10.3101C16.6223 10.3101 15.5016 11.4309 15.5016 12.8084V13.951C15.5016 15.3286 16.6223 16.4493 17.9999 16.4493C19.3775 16.4493 20.4983 15.3286 20.4983 13.951V12.8084C20.4983 11.4309 19.3774 10.3101 17.9999 10.3101ZM19.0923 13.951C19.0923 14.5533 18.6023 15.0434 17.9999 15.0434C17.3975 15.0434 16.9075 14.5533 16.9075 13.951V12.8084C16.9075 12.2061 17.3975 11.716 17.9999 11.716C18.6023 11.716 19.0923 12.2061 19.0923 12.8084V13.951Z" fill="black"/>
<path d="M28.9661 0C26.6343 0 24.5203 1.31587 23.4699 3.34687C21.8229 2.44244 19.9532 1.96703 17.9999 1.96703C16.0017 1.96703 14.1304 2.47225 12.5314 3.34975C11.4815 1.31707 9.36664 0 7.03372 0C3.62274 0 0.847656 2.77508 0.847656 6.18606C0.847656 9.59704 3.62274 12.3721 7.03372 12.3721C7.15231 12.3721 7.27076 12.3676 7.38907 12.3609C7.55876 14.5471 8.52639 16.5353 10.0269 18.0848C8.73664 19.2398 7.76171 20.6937 7.18732 22.3326C7.05888 22.699 7.25185 23.1001 7.61816 23.2285C7.69507 23.2554 7.77352 23.2682 7.8507 23.2682C8.14095 23.2682 8.41265 23.087 8.51409 22.7976C9.02647 21.3358 9.9089 20.0444 11.0795 19.0316C12.9411 20.4894 15.3596 21.3714 17.9999 21.3714H22.9565C23.7895 21.3714 24.4672 22.0492 24.4672 22.8821C24.4672 23.715 23.7894 24.3928 22.9564 24.3928H21.6552C21.267 24.3928 20.9523 24.7076 20.9523 25.0957C20.9523 25.4839 21.267 25.7987 21.6552 25.7987H21.7475L21.1053 28.0939C20.5482 26.4664 19.0043 25.2926 17.1905 25.2926C16.8022 25.2926 16.4875 25.6073 16.4875 25.9955C16.4875 26.3837 16.8022 26.6985 17.1905 26.6985C18.6966 26.6985 19.922 27.9239 19.922 29.4301C19.922 30.2375 19.5771 30.9811 18.9699 31.501H18.2117C17.8234 31.501 17.5087 31.8158 17.5087 32.2039C17.5087 32.5921 17.8234 32.9069 18.2117 32.9069H20.353C21.4264 32.9069 22.3368 33.6181 22.6376 34.594H16.8752C13.0975 34.594 9.73176 32.1963 8.50017 28.6275C8.37349 28.2605 7.9733 28.0656 7.60635 28.1923C7.23934 28.319 7.04454 28.7192 7.17115 29.0862C8.59837 33.2215 12.4981 36 16.8752 36C16.8752 36 23.5092 35.9999 23.5241 35.9999C24.3262 35.9999 25.0461 35.4612 25.265 34.6789L26.7826 29.256C27.4084 29.0809 28.6831 28.5765 29.3908 27.2615C30.1649 25.823 30.0112 23.9105 28.934 21.5773C28.9335 21.5763 28.9328 21.5754 28.9323 21.5743L31.6833 11.7438C33.8014 10.7091 35.1523 8.5646 35.1523 6.18606C35.1522 2.77508 32.3771 0 28.9661 0V0ZM7.3911 10.9517C7.2723 10.9605 7.15308 10.9662 7.03372 10.9662C4.39796 10.9662 2.25358 8.82182 2.25358 6.18606C2.25358 3.55031 4.39796 1.40592 7.03372 1.40592C8.88047 1.40592 10.5506 2.47344 11.3402 4.10951C10.8979 4.43428 10.4846 4.79054 10.1045 5.17457C9.67868 3.88555 8.46347 2.95244 7.03372 2.95244C5.25073 2.95244 3.8001 4.40307 3.8001 6.18606C3.8001 7.96905 5.25073 9.41969 7.03372 9.41969C7.25051 9.41969 7.46224 9.39775 7.66723 9.35691C7.52818 9.87359 7.43504 10.4065 7.3911 10.9517ZM7.03372 8.01376C6.02595 8.01376 5.20602 7.1939 5.20602 6.18606C5.20602 5.17823 6.02595 4.35836 7.03372 4.35836C8.04148 4.35836 8.86142 5.17823 8.86142 6.18606C8.86142 7.1939 8.04148 8.01376 7.03372 8.01376ZM23.9208 18.0333C22.2631 19.2801 20.1667 19.9655 17.9999 19.9655C12.9092 19.9655 8.76764 16.2438 8.76764 11.6692C8.76764 7.09464 12.9092 3.37288 17.9999 3.37288C21.8981 3.37288 25.4023 5.61948 26.699 8.88951C26.4965 9.10124 26.3478 9.36085 26.2666 9.65096L23.9208 18.0333ZM23.9615 34.1199C23.589 32.9811 22.6918 32.0783 21.5568 31.6977L22.8968 26.9091C22.9093 27.0566 22.9316 27.2048 22.9666 27.3529C23.285 28.7033 24.3449 29.2146 25.2974 29.3463L23.9615 34.1199ZM28.1591 26.5833C27.558 27.7159 26.2162 27.9478 26.2066 27.9494C26.2033 27.95 26.2 27.9505 26.1967 27.951C26.1322 27.9619 24.6111 28.2013 24.3349 27.0302C24.1342 26.1791 24.6664 25.2849 25.5213 25.037C26.7169 24.6903 27.5706 23.9718 28.1247 23.3413C28.5654 24.6836 28.5798 25.7906 28.1591 26.5833ZM30.4791 10.8299L27.3269 22.094C27.3265 22.0954 27.3263 22.0968 27.3259 22.0983C27.0312 22.4967 26.537 23.0344 25.825 23.4061C25.856 23.236 25.8731 23.061 25.8731 22.8821C25.8731 21.9188 25.4034 21.0635 24.6814 20.5322L27.6204 10.0299C27.6494 9.92645 27.7169 9.84048 27.8105 9.78783C27.9041 9.73518 28.0127 9.72196 28.1161 9.75106L30.2003 10.3343C30.4137 10.394 30.5389 10.6163 30.4791 10.8299ZM27.1384 6.18606C27.1384 5.17823 27.9584 4.35836 28.9661 4.35836C29.9739 4.35836 30.7938 5.17823 30.7938 6.18606C30.7938 7.1939 29.9739 8.01376 28.9661 8.01376C27.9584 8.01376 27.1384 7.1939 27.1384 6.18606ZM31.7725 10.0575C31.5721 9.55219 31.1478 9.14223 30.5864 8.98258C31.5501 8.42204 32.1997 7.37878 32.1997 6.18606C32.1997 4.40307 30.749 2.95244 28.966 2.95244C27.5376 2.95244 26.3232 3.88393 25.8965 5.17113C25.5172 4.78689 25.1043 4.42978 24.6618 4.10466C25.4524 2.47133 27.1212 1.40592 28.9661 1.40592C31.6019 1.40592 33.7463 3.55031 33.7463 6.18606C33.7463 7.74347 32.9969 9.17119 31.7725 10.0575Z" fill="black"/>
<path d="M7.3149 26.4313C7.13002 26.4313 6.94866 26.3561 6.81791 26.2253C6.68716 26.0946 6.61194 25.9132 6.61194 25.7283C6.61194 25.5434 6.68716 25.3621 6.81791 25.2314C6.94866 25.1006 7.13002 25.0254 7.3149 25.0254C7.49978 25.0254 7.68114 25.1006 7.81189 25.2314C7.94264 25.3621 8.01786 25.5435 8.01786 25.7283C8.01786 25.9132 7.94264 26.0946 7.81189 26.2253C7.68114 26.3561 7.49971 26.4313 7.3149 26.4313Z" fill="black"/>
</g>
<defs>
<clipPath id="clip0">
<rect width="36" height="36" fill="white"/>
</clipPath>
</defs>
</svg>
