<svg width="36" height="36" viewBox="0 0 36 36" fill="none" xmlns="http://www.w3.org/2000/svg">
<g clip-path="url(#clip0)">
<path d="M14 31.4282C13.6841 31.4282 13.4285 31.6841 13.4285 31.9997V32.0909C13.4285 32.3858 13.1986 32.6358 12.9046 32.6604L7.84659 33.082C7.16245 33.1389 6.57985 33.5967 6.36279 34.248L6.02965 35.2474C5.92974 35.5468 6.0916 35.8704 6.39071 35.9703C6.45096 35.9904 6.51178 35.9999 6.57148 35.9999C6.81089 35.9999 7.0335 35.8484 7.11331 35.6091L7.44645 34.6096C7.51901 34.3926 7.71321 34.2399 7.94144 34.221L8.28576 34.1923V35.4283C8.28576 35.7439 8.54135 35.9997 8.85719 35.9997C9.17303 35.9997 9.42862 35.7439 9.42862 35.4283V34.0971L10.0789 34.0429L10.601 35.6091C10.6808 35.8485 10.9035 36 11.1428 36C11.2025 36 11.2633 35.9905 11.3236 35.9704C11.6227 35.8705 11.7846 35.5468 11.6847 35.2474L11.2505 33.9451L12.9994 33.7994C13.8811 33.726 14.5713 32.9754 14.5713 32.091V31.9997C14.5713 31.6841 14.3158 31.4282 14 31.4282Z" fill="#EBAF4B"/>
<path d="M21.9998 31.4282C22.3157 31.4282 22.5713 31.6841 22.5713 31.9997V32.0909C22.5713 32.3858 22.8012 32.6358 23.0952 32.6604L28.1532 33.082C28.8373 33.1389 29.4199 33.5967 29.637 34.248L29.9701 35.2474C30.0701 35.5468 29.9082 35.8704 29.6091 35.9703C29.5488 35.9904 29.488 35.9999 29.4283 35.9999C29.1889 35.9999 28.9663 35.8484 28.8865 35.6091L28.5533 34.6096C28.4808 34.3926 28.2866 34.2399 28.0583 34.221L27.714 34.1923V35.4283C27.714 35.7439 27.4584 35.9997 27.1426 35.9997C26.8268 35.9997 26.5712 35.7439 26.5712 35.4283V34.0971L25.9209 34.0429L25.3988 35.6091C25.319 35.8485 25.0963 36 24.857 36C24.7973 36 24.7364 35.9905 24.6762 35.9704C24.3771 35.8705 24.2152 35.5468 24.3151 35.2474L24.7492 33.9451L23.0004 33.7994C22.1187 33.726 21.4285 32.9754 21.4285 32.091V31.9997C21.4285 31.6841 21.684 31.4282 21.9998 31.4282Z" fill="#EBAF4B"/>
<path d="M17.9999 33.714C25.5742 33.714 31.7143 27.4461 31.7143 19.7142C31.7143 11.9823 25.5742 5.71429 17.9999 5.71429C10.4257 5.71429 4.28552 11.9823 4.28552 19.7142C4.28552 27.4461 10.4257 33.714 17.9999 33.714Z" fill="#824D51"/>
<path d="M18.0001 32.5714C23.0495 32.5714 27.1428 27.071 27.1428 20.2858C27.1428 13.5006 23.0495 8.00012 18.0001 8.00012C12.9507 8.00012 8.85742 13.5006 8.85742 20.2858C8.85742 27.071 12.9507 32.5714 18.0001 32.5714Z" fill="#C0826C"/>
<path d="M33.4284 9.7142L31.6102 11.5323C31.6762 11.1234 31.7141 10.7079 31.7141 10.2856C31.7141 4.60503 25.5741 0 18 0C10.4259 0 4.28586 4.60503 4.28586 10.2856C4.28586 10.7079 4.32376 11.1234 4.38971 11.5323L2.57158 9.7142C2.57158 9.7142 0.504748 14.8812 0.301898 18.3365C0.285304 18.6185 0.507561 18.8569 0.790075 18.8569H2.00015V20.1207C2.00015 20.3785 2.20012 20.5915 2.45732 20.6087C3.79156 20.6978 7.84759 20.8259 11.971 19.5248C11.7143 19.4283 18 16.5711 18 16.5711C18 16.5711 23.7142 19.4283 24.029 19.5248C28.1524 20.8258 32.2084 20.6977 33.5426 20.6087C33.7998 20.5915 33.9998 20.3784 33.9998 20.1207V18.8569H35.2099C35.4924 18.8569 35.7146 18.6185 35.6981 18.3365C35.4952 14.8812 33.4284 9.7142 33.4284 9.7142Z" fill="#965A50"/>
<path d="M31.5613 4.40754C33.5049 3.31748 34.1935 1.79522 34.4374 0.854799C34.5308 0.49473 34.1823 0.187958 33.8313 0.311145C29.447 1.85014 22.3078 -0.369337 18.7251 5.69903C18.3963 6.25597 17.6039 6.25597 17.2751 5.69903C13.6923 -0.369337 6.55308 1.85014 2.1689 0.311215C1.81791 0.188028 1.4693 0.4948 1.56274 0.854869C1.80673 1.79522 2.49536 3.31755 4.43886 4.40761C4.77482 4.59604 4.84175 5.04639 4.5669 5.31632C2.76607 7.08467 1.74134 9.64024 2.05704 12.4278C2.49776 16.32 5.62904 19.4736 9.5185 19.937C13.1285 20.3671 16.3583 18.5497 18.0001 15.7014C19.6421 18.5497 22.8718 20.3671 26.4817 19.937C30.3712 19.4736 33.5025 16.32 33.9432 12.4278C34.2588 9.64024 33.2342 7.08467 31.4333 5.31632C31.1584 5.04632 31.2253 4.59597 31.5613 4.40754Z" fill="#AF6E5A"/>
<path d="M10.5713 17.1428C13.7272 17.1428 16.2856 14.5845 16.2856 11.4286C16.2856 8.27266 13.7272 5.71429 10.5713 5.71429C7.41542 5.71429 4.85706 8.27266 4.85706 11.4286C4.85706 14.5845 7.41542 17.1428 10.5713 17.1428Z" fill="#EBAF4B"/>
<path d="M10.5715 15.4284C12.7806 15.4284 14.5714 13.6376 14.5714 11.4285C14.5714 9.21944 12.7806 7.42862 10.5715 7.42862C8.36236 7.42862 6.57153 9.21944 6.57153 11.4285C6.57153 13.6376 8.36236 15.4284 10.5715 15.4284Z" fill="#FFC850"/>
<path d="M18.3745 20.1439L19.51 17.1158C19.6344 16.7842 19.5534 16.4105 19.303 16.16L18.808 15.6651C18.3617 15.2187 17.6381 15.2187 17.1919 15.6651L16.6969 16.16C16.4465 16.4105 16.3656 16.7842 16.4899 17.1158L17.6254 20.1439C17.7552 20.49 18.2447 20.49 18.3745 20.1439Z" fill="#EBAF4B"/>
<path d="M10.5715 14.2855C9.30909 14.2855 8.28577 13.2622 8.28577 11.9998V10.857C8.28577 9.59465 9.30909 8.57126 10.5715 8.57126C11.8338 8.57126 12.8572 9.59458 12.8572 10.857V11.9998C12.8572 13.2622 11.8339 14.2855 10.5715 14.2855Z" fill="#4B3F4E"/>
<path d="M10.8571 11.4285C11.3305 11.4285 11.7142 11.0448 11.7142 10.5714C11.7142 10.0981 11.3305 9.71432 10.8571 9.71432C10.3837 9.71432 10 10.0981 10 10.5714C10 11.0448 10.3837 11.4285 10.8571 11.4285Z" fill="white"/>
<path d="M25.4285 17.1428C28.5844 17.1428 31.1428 14.5845 31.1428 11.4286C31.1428 8.27266 28.5844 5.71429 25.4285 5.71429C22.2726 5.71429 19.7142 8.27266 19.7142 11.4286C19.7142 14.5845 22.2726 17.1428 25.4285 17.1428Z" fill="#EBAF4B"/>
<path d="M25.4286 15.4284C27.6377 15.4284 29.4286 13.6376 29.4286 11.4285C29.4286 9.21944 27.6377 7.42862 25.4286 7.42862C23.2195 7.42862 21.4287 9.21944 21.4287 11.4285C21.4287 13.6376 23.2195 15.4284 25.4286 15.4284Z" fill="#FFC850"/>
<path d="M25.4284 14.2855C24.166 14.2855 23.1427 13.2622 23.1427 11.9998V10.857C23.1427 9.59465 24.166 8.57126 25.4284 8.57126C26.6907 8.57126 27.7141 9.59458 27.7141 10.857V11.9998C27.7141 13.2622 26.6907 14.2855 25.4284 14.2855Z" fill="#4B3F4E"/>
<path d="M25.7139 11.4285C26.1873 11.4285 26.571 11.0448 26.571 10.5714C26.571 10.0981 26.1873 9.71432 25.7139 9.71432C25.2406 9.71432 24.8568 10.0981 24.8568 10.5714C24.8568 11.0448 25.2406 11.4285 25.7139 11.4285Z" fill="white"/>
</g>
<defs>
<clipPath id="clip0">
<rect width="36" height="36" fill="white"/>
</clipPath>
</defs>
</svg>
