<svg width="36" height="36" viewBox="0 0 36 36" fill="none" xmlns="http://www.w3.org/2000/svg">
<g clip-path="url(#clip0)">
<path d="M5.29165 30.927L4.98902 29.3535C4.8484 28.6223 5.40872 27.9439 6.1534 27.9439C6.72195 27.9439 7.21041 28.3474 7.31777 28.9057L7.70646 30.927H34.9044C35.2182 30.927 35.4726 31.1814 35.4726 31.4952V33.1999C35.4726 33.5137 35.2182 33.7681 34.9044 33.7681H1.09554C0.781734 33.7681 0.527344 33.5137 0.527344 33.1999V31.4952C0.527344 31.1814 0.781734 30.927 1.09554 30.927H5.29165V30.927Z" fill="#C7865B"/>
<path d="M34.9044 33.768H33.2708C33.5846 33.768 33.8389 33.5136 33.8389 33.1998V31.4952C33.8389 31.1813 33.5846 30.927 33.2708 30.927H34.9044C35.2182 30.927 35.4726 31.1813 35.4726 31.4952V33.1998C35.4726 33.5136 35.2182 33.768 34.9044 33.768Z" fill="#B36D3C"/>
<path d="M18.399 30.3379L20.9122 30.9269V14.0935H16.3665C13.856 14.0935 11.8208 16.1287 11.8208 18.6392V22.0395C11.8207 25.9976 14.5455 29.4347 18.399 30.3379Z" fill="#465A61"/>
<path d="M26.5232 30.927H19.7757C16.6375 30.927 14.0935 28.383 14.0935 25.2448V21.034C14.0935 19.5447 14.6782 18.115 15.7217 17.0525L17.9999 14.7328V0.527344H22.2616C26.1843 0.527344 29.3642 3.70737 29.3642 7.63003V28.0858C29.3642 29.6549 28.0922 30.927 26.5232 30.927Z" fill="#7A8C98"/>
<path d="M26.5232 30.927H19.7757C16.6375 30.927 14.0935 28.383 14.0935 25.2448V21.034C14.0935 20.3036 14.235 19.5878 14.5014 18.9223C14.9484 23.2424 17.3713 26.4143 21.9675 27.5774C23.0797 27.8589 24.0453 26.7694 23.6408 25.6959C23.2025 24.5328 22.9719 23.2922 22.9719 22.0395V18.6392C22.9719 15.1144 25.8395 12.2467 29.3643 12.2467V28.0858C29.3643 29.6549 28.0922 30.927 26.5232 30.927Z" fill="#596C76"/>
<path d="M20.1308 0.527344C22.4845 0.527344 24.3925 2.43534 24.3925 4.78898V10.4711C24.3925 12.8248 22.4845 14.7328 20.1308 14.7328H18V0.527344H20.1308Z" fill="#D3EFFD"/>
<path d="M12.0337 0.527344H18V1.63237C18 2.1401 18.2538 2.61422 18.6762 2.89589C18.9298 3.06492 19.1266 3.30644 19.2412 3.58889L19.7894 4.94114C19.9 5.21388 19.9201 5.50737 19.8587 5.78341H9.1386C7.74796 5.78341 6.44479 6.46193 5.64737 7.60113L4.93103 8.62446V7.6301C4.93103 3.70737 8.11105 0.527344 12.0337 0.527344Z" fill="#E9A761"/>
<path d="M9.70216 4.59506C9.70216 5.03508 9.56871 5.44387 9.34026 5.78334H9.13868C7.74803 5.78334 6.44486 6.46186 5.64745 7.60106L4.93103 8.62446V7.6301C4.93103 5.61726 5.76852 3.80018 7.11374 2.50776C7.28995 2.47964 7.44464 2.46431 7.57134 2.46431C8.74816 2.46424 9.70216 3.41824 9.70216 4.59506Z" fill="#8D9CA8"/>
<path d="M9.13855 5.78334H19.8585C19.8043 6.0269 19.6868 6.2569 19.5091 6.44639L18 8.05619H7.22682C6.78842 8.05605 6.35298 8.13129 5.93905 8.27374L4.93091 8.62439L5.64725 7.60106C6.44481 6.46186 7.74798 5.78334 9.13855 5.78334Z" fill="#E38523"/>
<path d="M31.3968 30.3379L33.91 30.9269V18.6392C33.91 16.1287 31.8748 14.0935 29.3643 14.0935C26.8538 14.0935 24.8186 16.1287 24.8186 18.6392V22.0395C24.8185 25.9976 27.5433 29.4347 31.3968 30.3379Z" fill="#8D9CA8"/>
<path d="M27.8728 35.4727C28.5004 35.4727 29.0092 34.9639 29.0092 34.3362V30.0035C29.0092 29.3759 28.5005 28.8671 27.8728 28.8671C27.2452 28.8671 26.7363 29.3759 26.7363 30.0035V34.3362C26.7363 34.9639 27.2451 35.4727 27.8728 35.4727Z" fill="#F7E365"/>
<path d="M25.5998 35.4727C26.2274 35.4727 26.7363 34.9639 26.7363 34.3362V30.0035C26.7363 29.3759 26.2275 28.8671 25.5998 28.8671C24.9722 28.8671 24.4634 29.3759 24.4634 30.0035V34.3362C24.4634 34.9639 24.9722 35.4727 25.5998 35.4727Z" fill="#F3D332"/>
<path d="M18.7814 35.4727C19.409 35.4727 19.9178 34.9639 19.9178 34.3362V30.0035C19.9178 29.3759 19.409 28.8671 18.7814 28.8671C18.1537 28.8671 17.6449 29.3759 17.6449 30.0035V34.3362C17.6449 34.9639 18.1537 35.4727 18.7814 35.4727Z" fill="#F7E365"/>
<path d="M16.5084 35.4727C17.136 35.4727 17.6449 34.9639 17.6449 34.3362V30.0035C17.6449 29.3759 17.1361 28.8671 16.5084 28.8671C15.8808 28.8671 15.3719 29.3759 15.3719 30.0035V34.3362C15.3719 34.9639 15.8807 35.4727 16.5084 35.4727Z" fill="#F3D332"/>
<path d="M34.9045 30.3996H34.4374V18.6392C34.4374 16.0201 32.4422 13.8584 29.892 13.5936V11.0855C29.892 10.7942 29.6559 10.5581 29.3646 10.5581C29.0733 10.5581 28.8373 10.7942 28.8373 11.0855V13.5936C26.2867 13.8581 24.2913 16.0199 24.2913 18.6393V22.0396C24.2913 24.0723 24.9867 26.069 26.2495 27.6619C26.4998 27.9777 26.7714 28.2746 27.0603 28.5526C26.9428 28.6187 26.8341 28.6985 26.7364 28.7901C26.4388 28.5112 26.039 28.3399 25.5999 28.3399C24.6826 28.3399 23.9362 29.0862 23.9362 30.0037V30.3997H20.4452V30.0037C20.4452 29.0863 19.6988 28.3399 18.7814 28.3399C18.3423 28.3399 17.9426 28.5112 17.645 28.7901C17.3474 28.5112 16.9477 28.3399 16.5086 28.3399C16.2494 28.3399 16.0038 28.3996 15.7849 28.5057C15.032 27.5872 14.621 26.4454 14.621 25.2451V24.6094C14.621 24.3181 14.3849 24.082 14.0936 24.082C13.8024 24.082 13.5663 24.3181 13.5663 24.6094V25.245C13.5663 25.6627 13.6082 26.0744 13.6887 26.4757C12.826 25.1827 12.3482 23.6468 12.3482 22.0393V18.6393C12.3482 16.4235 14.1509 14.6209 16.3666 14.6209H17.3707L15.345 16.6829C14.198 17.8516 13.5663 19.3969 13.5663 21.0341V22.1484C13.5663 22.4397 13.8024 22.6758 14.0936 22.6758C14.3849 22.6758 14.621 22.4397 14.621 22.1484V21.034C14.621 19.6748 15.1455 18.3919 16.0976 17.4217L18.2212 15.2601H20.131C22.7718 15.2601 24.92 13.1118 24.92 10.4711V4.78898C24.92 3.31903 24.2537 2.00222 23.2079 1.12303C26.387 1.58316 28.8375 4.32577 28.8375 7.63031V8.62453C28.8375 8.91577 29.0735 9.15188 29.3648 9.15188C29.6561 9.15188 29.8922 8.91577 29.8922 8.62453V7.63031C29.892 3.42295 26.469 0 22.2616 0H12.0337C7.82648 0 4.40367 3.42281 4.40367 7.63003V8.62446C4.39425 8.97708 4.77513 9.24722 5.10405 9.12199L6.11079 8.77247C6.4748 8.64717 6.84998 8.58361 7.22609 8.58361H7.22686H17.4727V13.5662H16.3664C13.569 13.5662 11.2933 15.842 11.2933 18.6393V22.0393C11.2933 24.9377 12.666 27.6304 14.9863 29.3329C14.8955 29.5382 14.8447 29.765 14.8447 30.0035V30.3996H8.13769L7.83464 28.8085C7.68038 28.0017 6.97254 27.4163 6.15087 27.4163C5.63857 27.4163 5.15742 27.6427 4.83075 28.0374C4.50422 28.4321 4.37189 28.947 4.46773 29.45L4.64871 30.3996H1.09547C0.491414 30.3996 0 30.891 0 31.4951V33.1995C0 33.8039 0.491414 34.2956 1.09547 34.2956H9.27492C9.56616 34.2956 9.80227 34.0595 9.80227 33.7683C9.80227 33.477 9.56616 33.2409 9.27492 33.2409H1.09547C1.07297 33.2409 1.05469 33.2223 1.05469 33.1995V31.4951C1.05469 31.4726 1.07297 31.4543 1.09547 31.4543H4.84882L4.87828 31.6107C4.92595 31.864 5.1473 32.0406 5.39592 32.0406C5.42827 32.0406 5.4611 32.0377 5.49408 32.0314C5.78032 31.9776 5.96869 31.7019 5.91476 31.4156L5.50392 29.2525C5.46715 29.0592 5.51798 28.8615 5.64349 28.7097C5.76907 28.5579 5.95406 28.4709 6.15171 28.4709C6.46734 28.4709 6.73945 28.6962 6.79873 29.0062L7.29323 31.6107C7.34091 31.864 7.56225 32.0406 7.81087 32.0406C7.84322 32.0406 7.87605 32.0377 7.90903 32.0314C8.18234 31.98 8.36585 31.7263 8.33498 31.4543H14.8447V33.2409H11.7359C11.4446 33.2409 11.2085 33.477 11.2085 33.7683C11.2085 34.0595 11.4446 34.2956 11.7359 34.2956H14.8447V34.3363C14.8447 35.2536 15.591 36.0001 16.5085 36.0001C16.9476 36.0001 17.3472 35.8288 17.6449 35.5499C17.9425 35.8288 18.3421 36.0001 18.7812 36.0001C19.6987 36.0001 20.445 35.2537 20.445 34.3363V34.2953H23.9361V34.3363C23.9361 35.2536 24.6824 36.0001 25.5998 36.0001H25.5999C26.039 36.0001 26.4386 35.8288 26.7363 35.5499C27.0339 35.8288 27.4335 36.0001 27.8727 36.0001H27.8727C28.7901 36.0001 29.5365 35.2537 29.5365 34.3363V34.2953H34.9044C35.5085 34.2953 35.9999 33.8039 35.9999 33.1998V31.4951C36 30.891 35.5086 30.3996 34.9045 30.3996ZM23.8651 4.78898V10.4711C23.8651 12.5303 22.1899 14.2054 20.1308 14.2054H18.5273V8.26474L19.894 6.80702C20.1317 6.55348 20.2975 6.23904 20.3734 5.89781C20.3735 5.89746 20.3735 5.89718 20.3735 5.8969C20.4597 5.5087 20.4268 5.10968 20.2781 4.743L19.7299 3.39068C19.575 3.0086 19.3118 2.6858 18.9688 2.45707C18.6924 2.27285 18.5274 1.9646 18.5274 1.63238V1.05469H20.1309C22.1899 1.05469 23.8651 2.72988 23.8651 4.78898ZM17.4727 1.05469V1.63238C17.4727 2.31799 17.8132 2.95439 18.3836 3.33457C18.5498 3.44538 18.6775 3.60183 18.7525 3.78689L19.3006 5.13921C19.3162 5.17739 19.3288 5.21634 19.3388 5.25593H10.1448C10.1997 5.04155 10.2295 4.82013 10.2295 4.59499C10.2295 3.45002 9.50182 2.47177 8.48461 2.09855C9.5092 1.43888 10.7272 1.05469 12.0337 1.05469H17.4727ZM7.36538 3.0053C7.46065 2.99454 7.52787 2.99159 7.57139 2.99159C8.45557 2.99159 9.17487 3.71088 9.17487 4.59506C9.17487 4.82653 9.12502 5.05181 9.03066 5.25895C7.66252 5.28989 6.37587 5.90449 5.49464 6.9378C5.65488 5.41153 6.34029 4.03995 7.36538 3.0053ZM7.22594 7.52885C6.9132 7.52885 6.60143 7.56246 6.29367 7.6287C6.99905 6.79852 8.03805 6.31069 9.13859 6.31069H18.9136L17.7716 7.52885H7.227C7.22665 7.52885 7.2263 7.52885 7.22594 7.52885ZM25.346 22.0395V18.6392C25.346 16.4235 27.1486 14.6209 29.3643 14.6209C31.58 14.6209 33.3827 16.4235 33.3827 18.6392V30.2617L31.5172 29.8245H31.5173C31.4802 29.8157 31.4436 29.8053 31.4067 29.796V21.9065C31.4067 21.6153 31.1707 21.3791 30.8794 21.3791C30.588 21.3791 30.352 21.6153 30.352 21.9065V29.4527C29.6421 29.1655 28.9763 28.7774 28.3766 28.3029V21.9066C28.3766 21.6153 28.1406 21.3792 27.8493 21.3792C27.558 21.3792 27.322 21.6153 27.322 21.9066V27.3007C27.2379 27.2046 27.1555 27.107 27.0759 27.0068C25.9604 25.5994 25.346 23.8354 25.346 22.0395ZM16.5085 34.9453C16.1726 34.9453 15.8993 34.6721 15.8993 34.3362V30.0035C15.8993 29.6677 16.1726 29.3944 16.5085 29.3944C16.8443 29.3944 17.1176 29.6677 17.1176 30.0035V34.3362C17.1175 34.6721 16.8443 34.9453 16.5085 34.9453ZM19.3904 34.3362C19.3904 34.672 19.1171 34.9453 18.7812 34.9453C18.4454 34.9453 18.1722 34.6721 18.1722 34.3362V30.0035C18.1722 29.6677 18.4454 29.3944 18.7812 29.3944C19.1171 29.3944 19.3904 29.6677 19.3904 30.0035V34.3362ZM20.445 33.2407V31.4543H23.9361V33.2407H20.445ZM25.5999 34.9453C25.2641 34.9453 24.9908 34.6721 24.9908 34.3362V30.0035C24.9908 29.6677 25.2641 29.3944 25.5999 29.3944C25.9358 29.3944 26.209 29.6677 26.209 30.0035V34.3362C26.209 34.6721 25.9357 34.9453 25.5999 34.9453ZM28.4818 34.3362C28.4818 34.672 28.2085 34.9453 27.8727 34.9453C27.5369 34.9453 27.2637 34.6721 27.2637 34.3362V30.0035C27.2637 29.6677 27.537 29.3944 27.8728 29.3944C28.2086 29.3944 28.4818 29.6677 28.4818 30.0035V34.3362ZM34.9453 33.1998C34.9453 33.2223 34.927 33.2407 34.9045 33.2407H29.5365V31.4543H34.9045C34.927 31.4543 34.9453 31.4726 34.9453 31.4951V33.1998Z" fill="black"/>
</g>
<defs>
<clipPath id="clip0">
<rect width="36" height="36" fill="white"/>
</clipPath>
</defs>
</svg>
