<svg width="36" height="36" viewBox="0 0 36 36" fill="none" xmlns="http://www.w3.org/2000/svg">
<g clip-path="url(#clip0)">
<path d="M30.2298 13.1443V16.1611L30.2876 16.383C31.964 16.383 33.3231 15.024 33.3231 13.3475V9.64652C33.3231 7.9701 31.964 6.61102 30.2876 6.61102C29.3809 6.61102 28.5669 7.00865 28.0107 7.63898L28.0108 7.63919C29.3847 9.0666 30.2298 11.0066 30.2298 13.1443Z" fill="#6D92AC"/>
<path d="M33.5379 24.3623C31.7109 24.3623 30.2298 22.8812 30.2298 21.0542V20.3902V19.4458V13.1443C30.2298 8.75955 26.6753 5.20502 22.2906 5.20502C21.0783 5.20502 19.9221 5.71541 19.1052 6.61106H11.9586C6.6782 6.61106 2.39758 10.8917 2.39758 16.1721C2.39758 17.8133 2.81145 19.3577 3.54013 20.7072C3.90204 21.3774 4.08483 22.1296 4.08483 22.8914V30.1095C4.08483 30.4881 4.3917 30.7949 4.77027 30.7949H7.89871C8.27728 30.7949 8.58415 30.4881 8.58415 30.1095V25.1199C9.63355 25.5159 10.7706 25.7332 11.9586 25.7332H16.3976V30.1095C16.3976 30.4881 16.7044 30.7949 17.083 30.7949H20.2115C20.59 30.7949 20.8969 30.4881 20.8969 30.1095V25.4894C22.1284 25.186 23.284 24.6054 24.2708 23.781V23.7809C25.3336 26.2522 27.7899 27.9829 30.6507 27.9829H33.4306C34.4586 27.9829 35.2921 27.1496 35.2921 26.1215V26.1164C35.292 25.1476 34.5066 24.3623 33.5379 24.3623Z" fill="#8AA8BD"/>
<path d="M24.2707 23.7808V23.7808C23.2839 24.6053 22.1284 25.186 20.8968 25.4893V30.1093C20.8968 30.4879 20.59 30.7948 20.2114 30.7948H23.5853C23.9638 30.7948 24.2707 30.4879 24.2707 30.1093V23.7808C24.2708 23.7808 24.2708 23.7808 24.2707 23.7808Z" fill="#6D92AC"/>
<path d="M11.9587 25.7332C10.7706 25.7332 9.63348 25.5159 8.58416 25.1199V30.1095C8.58416 30.4881 8.27729 30.7949 7.89871 30.7949H11.2732C11.6518 30.7949 11.9587 30.4881 11.9587 30.1095V25.7332Z" fill="#6D92AC"/>
<path d="M26.0117 21.726C23.8409 21.726 22.0748 19.9599 22.0748 17.7891C22.0748 17.0125 22.7043 16.3831 23.4809 16.3831C24.2574 16.3831 24.8869 17.0125 24.8869 17.7891C24.8869 18.4093 25.3915 18.9139 26.0117 18.9139C26.7883 18.9139 27.4178 19.5434 27.4178 20.32C27.4178 21.0965 26.7883 21.726 26.0117 21.726Z" fill="#FFF3DA"/>
<path d="M33.5379 23.6593C32.1015 23.6593 30.9328 22.4907 30.9328 21.0543V17.0292C32.6877 16.7225 34.0261 15.1889 34.0261 13.3475V9.64657C34.0261 7.5851 32.3491 5.90805 30.2876 5.90805C29.4608 5.90805 28.6645 6.18343 28.0174 6.67793C26.4915 5.32497 24.4855 4.50201 22.2906 4.50201C20.9914 4.50201 19.7408 5.01149 18.8105 5.90805H11.9586C10.3624 5.90805 8.83252 6.26455 7.41165 6.96778C7.06366 7.14002 6.92115 7.56169 7.09339 7.90969C7.216 8.15743 7.46508 8.30106 7.72407 8.30106C7.82875 8.30099 7.93512 8.27751 8.03537 8.22795C9.26066 7.62159 10.5806 7.31409 11.9586 7.31409H14.3524C13.8399 7.95405 13.5324 8.76484 13.5324 9.64657V13.3475C13.5324 15.409 15.2095 17.0861 17.2709 17.0861C19.3323 17.0861 21.0094 15.409 21.0094 13.3475C21.0094 12.9593 20.6946 12.6445 20.3064 12.6445C19.9182 12.6445 19.6034 12.9593 19.6034 13.3475C19.6034 14.6336 18.557 15.68 17.2709 15.68C15.9848 15.68 14.9385 14.6336 14.9385 13.3475V9.64657C14.9385 8.36046 15.9848 7.31409 17.2709 7.31409C18.0158 7.31409 18.6984 7.65738 19.1438 8.256C19.3756 8.56743 19.8159 8.63218 20.1275 8.40033C20.439 8.16854 20.5036 7.7281 20.2718 7.41666C20.1324 7.22924 19.9758 7.05749 19.8062 6.90142C20.4735 6.26786 21.3648 5.90805 22.2907 5.90805C26.2806 5.90805 29.5268 9.15417 29.5268 13.1443V21.0543C29.5268 23.266 31.3262 25.0653 33.5379 25.0653C34.1202 25.0653 34.594 25.5391 34.594 26.1214C34.594 26.7602 34.0744 27.2798 33.4356 27.2798H30.6507C27.5996 27.2798 25.0534 25.0783 24.5162 22.1803C24.9859 22.3406 25.4885 22.429 26.0117 22.429C27.1746 22.429 28.1208 21.4829 28.1208 20.3199C28.1208 19.157 27.1746 18.2109 26.0117 18.2109C25.7791 18.2109 25.5899 18.0217 25.5899 17.7891C25.5899 16.6261 24.6438 15.68 23.4808 15.68C22.3179 15.68 21.3718 16.6261 21.3718 17.7891C21.3718 19.2042 22.0093 20.4725 23.0114 21.3243C23.0398 22.0999 23.1842 22.8464 23.428 23.5469C22.6215 24.1354 21.6977 24.5681 20.7288 24.8068C20.4146 24.8842 20.1939 25.1659 20.1939 25.4895V30.0919H17.1007V25.7332C17.1007 25.3449 16.7858 25.0302 16.3976 25.0302H8.58415C8.19594 25.0302 7.88113 25.3449 7.88113 25.7332V30.0919H4.78784V22.8914C4.78784 22.0061 4.57033 21.1354 4.15878 20.3732C3.46652 19.0912 3.1006 17.6385 3.1006 16.1721C3.1006 14.8297 3.39305 13.5405 3.96981 12.3404C4.13797 11.9904 3.99062 11.5704 3.64058 11.4022C3.29076 11.234 2.87064 11.3813 2.70241 11.7314C2.12052 12.9423 1.78841 14.2309 1.71192 15.5696C0.723055 15.8652 0 16.7828 0 17.8666V25.0301C0 25.4184 0.314812 25.7331 0.703019 25.7331C1.0913 25.7331 1.40604 25.4184 1.40604 25.0301V17.8666C1.40604 17.5727 1.53539 17.309 1.7392 17.1273C1.86743 18.4969 2.2697 19.8341 2.92147 21.0412C3.22257 21.5988 3.38173 22.2386 3.38173 22.8914V30.1095C3.38173 30.8751 4.00454 31.498 4.7702 31.498H11.2731C12.0388 31.498 12.6616 30.8751 12.6616 30.1095V26.4362H15.6946V30.1095C15.6946 30.8751 16.3174 31.498 17.083 31.498H23.5852C24.3509 31.498 24.9737 30.8751 24.9737 30.1095V26.1556C26.374 27.7083 28.4002 28.6859 30.6507 28.6859H33.4356C34.8496 28.6859 36.0001 27.5355 36.0001 26.1214C36 24.7638 34.8955 23.6593 33.5379 23.6593V23.6593ZM28.9992 7.70265C29.3778 7.45181 29.8252 7.31409 30.2876 7.31409C31.5737 7.31409 32.6201 8.36046 32.6201 9.64657V13.3475C32.6201 14.4098 31.906 15.3079 30.9328 15.5886V13.1443C30.9328 11.0836 30.2075 9.1894 28.9992 7.70265V7.70265ZM23.4808 17.0861C23.8685 17.0861 24.1839 17.4014 24.1839 17.7891C24.1839 18.7969 25.0038 19.6169 26.0117 19.6169C26.3994 19.6169 26.7147 19.9323 26.7147 20.3199C26.7147 20.7076 26.3994 21.023 26.0117 21.023C24.2286 21.023 22.7778 19.5722 22.7778 17.7891C22.7778 17.4014 23.0932 17.0861 23.4808 17.0861ZM11.2556 30.0919H9.28717V26.4362H11.2556V30.0919ZM21.5999 30.0919V26.0226C22.2872 25.8074 22.9494 25.5091 23.5677 25.1389V30.092H21.5999V30.0919Z" fill="black"/>
<path d="M25.1643 13.2946C25.2957 13.1638 25.3703 12.9825 25.3703 12.7976C25.3703 12.6127 25.2957 12.4313 25.1643 12.3005C25.0336 12.1698 24.8528 12.0945 24.6673 12.0945C24.4824 12.0945 24.301 12.1698 24.1702 12.3005C24.0395 12.4313 23.9643 12.6127 23.9643 12.7976C23.9643 12.9825 24.0394 13.1638 24.1702 13.2946C24.301 13.4254 24.4824 13.5006 24.6673 13.5006C24.8529 13.5007 25.0336 13.4254 25.1643 13.2946Z" fill="black"/>
<path d="M5.1592 10.1535C5.3448 10.1535 5.52547 10.0783 5.65694 9.94756C5.78763 9.8168 5.86292 9.63541 5.86292 9.45052C5.86292 9.26562 5.7877 9.08425 5.65694 8.95348C5.52547 8.82272 5.3448 8.7475 5.1592 8.7475C4.9743 8.7475 4.79363 8.82272 4.66216 8.95348C4.53147 9.08425 4.45618 9.26562 4.45618 9.45052C4.45618 9.63541 4.5314 9.8168 4.66216 9.94756C4.79363 10.0783 4.9743 10.1535 5.1592 10.1535Z" fill="black"/>
</g>
<defs>
<clipPath id="clip0">
<rect width="36" height="36" fill="white"/>
</clipPath>
</defs>
</svg>
